<svg width="100" height="100" viewBox="0 0 100 100" fill="none" xmlns="http://www.w3.org/2000/svg">
<g id="&#208;&#178;&#208;&#178;&#208;&#181;&#209;&#128;&#209;&#133;">
<rect id="Rectangle 550" width="100" height="100" fill="#1651A2"/>
<path id="Arrow 4" d="M53.5 81C53.5 82.933 51.933 84.5 50 84.5C48.067 84.5 46.5 82.933 46.5 81L53.5 81ZM47.5251 20.5251C48.892 19.1583 51.108 19.1583 52.4749 20.5251L74.7487 42.799C76.1156 44.1658 76.1156 46.3819 74.7487 47.7487C73.3819 49.1156 71.1658 49.1156 69.799 47.7487L50 27.9497L30.201 47.7487C28.8342 49.1156 26.6181 49.1156 25.2513 47.7487C23.8844 46.3819 23.8844 44.1658 25.2513 42.799L47.5251 20.5251ZM50 81L46.5 81L46.5 23L50 23L53.5 23L53.5 81L50 81Z" fill="white"/>
</g>
</svg>
